<svg width="1143" height="177" viewBox="0 0 1143 177" fill="none" xmlns="http://www.w3.org/2000/svg">
<g style="mix-blend-mode:multiply" filter="url(#filter0_d_16_7)">
<path d="M59.7516 52.352C59.7516 52.7787 59.5809 53.1627 59.2396 53.504C58.9836 53.76 58.6422 53.888 58.2156 53.888H31.4636C31.0369 53.888 30.8236 54.1013 30.8236 54.528V74.752C30.8236 75.1787 31.0369 75.392 31.4636 75.392H46.8236C47.2502 75.392 47.5916 75.5627 47.8476 75.904C48.1889 76.16 48.3596 76.5013 48.3596 76.928V89.344C48.3596 89.7707 48.1889 90.1547 47.8476 90.496C47.5916 90.752 47.2502 90.88 46.8236 90.88H31.4636C31.0369 90.88 30.8236 91.0933 30.8236 91.52V111.872C30.8236 112.299 31.0369 112.512 31.4636 112.512H58.2156C58.6422 112.512 58.9836 112.683 59.2396 113.024C59.5809 113.28 59.7516 113.621 59.7516 114.048V126.464C59.7516 126.891 59.5809 127.275 59.2396 127.616C58.9836 127.872 58.6422 128 58.2156 128H14.3116C13.8849 128 13.5009 127.872 13.1596 127.616C12.9036 127.275 12.7756 126.891 12.7756 126.464V39.936C12.7756 39.5093 12.9036 39.168 13.1596 38.912C13.5009 38.5707 13.8849 38.4 14.3116 38.4H58.2156C58.6422 38.4 58.9836 38.5707 59.2396 38.912C59.5809 39.168 59.7516 39.5093 59.7516 39.936V52.352ZM86.0526 127.872C85.6259 127.872 85.2419 127.744 84.9006 127.488C84.6446 127.147 84.5166 126.763 84.5166 126.336V93.056L84.3886 92.288L66.4686 40.192C66.3832 40.0213 66.3406 39.808 66.3406 39.552C66.3406 38.784 66.8099 38.4 67.7486 38.4H83.4926C84.4312 38.4 85.0286 38.8267 85.2846 39.68L93.2206 70.272C93.3059 70.528 93.4339 70.656 93.6046 70.656C93.7752 70.656 93.9032 70.528 93.9886 70.272L101.925 39.68C102.181 38.8267 102.778 38.4 103.717 38.4H119.461C119.973 38.4 120.357 38.5707 120.613 38.912C120.869 39.168 120.911 39.5947 120.741 40.192L102.693 92.288L102.565 93.056V126.336C102.565 126.763 102.394 127.147 102.053 127.488C101.797 127.744 101.455 127.872 101.029 127.872H86.0526ZM175.502 52.352C175.502 52.7787 175.331 53.1627 174.99 53.504C174.734 53.76 174.392 53.888 173.966 53.888H147.214C146.787 53.888 146.574 54.1013 146.574 54.528V74.752C146.574 75.1787 146.787 75.392 147.214 75.392H162.574C163 75.392 163.342 75.5627 163.598 75.904C163.939 76.16 164.11 76.5013 164.11 76.928V89.344C164.11 89.7707 163.939 90.1547 163.598 90.496C163.342 90.752 163 90.88 162.574 90.88H147.214C146.787 90.88 146.574 91.0933 146.574 91.52V111.872C146.574 112.299 146.787 112.512 147.214 112.512H173.966C174.392 112.512 174.734 112.683 174.99 113.024C175.331 113.28 175.502 113.621 175.502 114.048V126.464C175.502 126.891 175.331 127.275 174.99 127.616C174.734 127.872 174.392 128 173.966 128H130.062C129.635 128 129.251 127.872 128.91 127.616C128.654 127.275 128.526 126.891 128.526 126.464V39.936C128.526 39.5093 128.654 39.168 128.91 38.912C129.251 38.5707 129.635 38.4 130.062 38.4H173.966C174.392 38.4 174.734 38.5707 174.99 38.912C175.331 39.168 175.502 39.5093 175.502 39.936V52.352ZM207.691 129.024C202.741 129.024 198.389 128.043 194.635 126.08C190.88 124.117 187.979 121.387 185.931 117.888C183.883 114.304 182.859 110.208 182.859 105.6V101.888C182.859 101.461 182.987 101.12 183.243 100.864C183.584 100.523 183.968 100.352 184.395 100.352H199.115C199.541 100.352 199.883 100.523 200.139 100.864C200.48 101.12 200.651 101.461 200.651 101.888V104.704C200.651 107.349 201.333 109.483 202.699 111.104C204.064 112.725 205.771 113.536 207.819 113.536C209.867 113.536 211.573 112.768 212.939 111.232C214.304 109.696 214.987 107.691 214.987 105.216C214.987 102.656 214.133 100.48 212.427 98.688C210.72 96.8107 207.392 94.08 202.443 90.496C198.176 87.424 194.72 84.6933 192.075 82.304C189.429 79.9147 187.168 76.9707 185.291 73.472C183.413 69.9733 182.475 65.92 182.475 61.312C182.475 54.0587 184.736 48.256 189.259 43.904C193.781 39.552 199.755 37.376 207.179 37.376C214.688 37.376 220.704 39.6373 225.227 44.16C229.835 48.6827 232.139 54.6133 232.139 61.952V65.024C232.139 65.4507 231.968 65.8347 231.627 66.176C231.371 66.432 231.029 66.56 230.603 66.56H215.883C215.456 66.56 215.072 66.432 214.731 66.176C214.475 65.8347 214.347 65.4507 214.347 65.024V61.568C214.347 58.9227 213.664 56.832 212.299 55.296C211.019 53.6747 209.312 52.864 207.179 52.864C205.131 52.864 203.467 53.632 202.187 55.168C200.907 56.6187 200.267 58.6667 200.267 61.312C200.267 63.872 201.077 66.1333 202.699 68.096C204.32 70.0587 207.52 72.7893 212.299 76.288C217.589 80.2133 221.557 83.4133 224.203 85.888C226.933 88.2773 229.024 90.9653 230.475 93.952C232.011 96.8533 232.779 100.352 232.779 104.448C232.779 111.957 230.475 117.931 225.867 122.368C221.259 126.805 215.2 129.024 207.691 129.024ZM291.727 129.024C283.876 129.024 277.604 126.72 272.911 122.112C268.217 117.504 265.871 111.36 265.871 103.68V62.72C265.871 55.04 268.217 48.896 272.911 44.288C277.604 39.68 283.876 37.376 291.727 37.376C299.577 37.376 305.849 39.68 310.543 44.288C315.321 48.896 317.711 55.04 317.711 62.72V103.68C317.711 111.36 315.321 117.504 310.543 122.112C305.849 126.72 299.577 129.024 291.727 129.024ZM291.727 113.536C294.116 113.536 296.036 112.725 297.487 111.104C298.937 109.397 299.663 107.179 299.663 104.448V61.952C299.663 59.2213 298.937 57.0453 297.487 55.424C296.036 53.7173 294.116 52.864 291.727 52.864C289.337 52.864 287.417 53.7173 285.967 55.424C284.601 57.0453 283.919 59.2213 283.919 61.952V104.448C283.919 107.179 284.601 109.397 285.967 111.104C287.417 112.725 289.337 113.536 291.727 113.536ZM374.499 52.352C374.499 52.7787 374.328 53.1627 373.987 53.504C373.731 53.76 373.389 53.888 372.963 53.888H346.339C345.912 53.888 345.699 54.1013 345.699 54.528V74.752C345.699 75.1787 345.912 75.392 346.339 75.392H361.571C361.997 75.392 362.339 75.5627 362.595 75.904C362.936 76.16 363.107 76.5013 363.107 76.928V89.344C363.107 89.7707 362.936 90.1547 362.595 90.496C362.339 90.752 361.997 90.88 361.571 90.88H346.339C345.912 90.88 345.699 91.0933 345.699 91.52V126.464C345.699 126.891 345.528 127.275 345.187 127.616C344.931 127.872 344.589 128 344.163 128H329.187C328.76 128 328.376 127.872 328.035 127.616C327.779 127.275 327.651 126.891 327.651 126.464V39.936C327.651 39.5093 327.779 39.168 328.035 38.912C328.376 38.5707 328.76 38.4 329.187 38.4H372.963C373.389 38.4 373.731 38.5707 373.987 38.912C374.328 39.168 374.499 39.5093 374.499 39.936V52.352ZM456.815 38.4C457.241 38.4 457.583 38.5707 457.839 38.912C458.18 39.168 458.351 39.5093 458.351 39.936V52.352C458.351 52.7787 458.18 53.1627 457.839 53.504C457.583 53.76 457.241 53.888 456.815 53.888H440.815C440.388 53.888 440.175 54.1013 440.175 54.528V126.464C440.175 126.891 440.004 127.275 439.663 127.616C439.407 127.872 439.065 128 438.639 128H423.663C423.236 128 422.852 127.872 422.511 127.616C422.255 127.275 422.127 126.891 422.127 126.464V54.528C422.127 54.1013 421.913 53.888 421.487 53.888H406.127C405.7 53.888 405.316 53.76 404.975 53.504C404.719 53.1627 404.591 52.7787 404.591 52.352V39.936C404.591 39.5093 404.719 39.168 404.975 38.912C405.316 38.5707 405.7 38.4 406.127 38.4H456.815ZM499.154 39.936C499.154 39.5093 499.282 39.168 499.538 38.912C499.879 38.5707 500.263 38.4 500.69 38.4H515.666C516.092 38.4 516.434 38.5707 516.69 38.912C517.031 39.168 517.202 39.5093 517.202 39.936V126.464C517.202 126.891 517.031 127.275 516.69 127.616C516.434 127.872 516.092 128 515.666 128H500.69C500.263 128 499.879 127.872 499.538 127.616C499.282 127.275 499.154 126.891 499.154 126.464V91.52C499.154 91.0933 498.94 90.88 498.514 90.88H485.714C485.287 90.88 485.074 91.0933 485.074 91.52V126.464C485.074 126.891 484.903 127.275 484.562 127.616C484.306 127.872 483.964 128 483.538 128H468.562C468.135 128 467.751 127.872 467.41 127.616C467.154 127.275 467.026 126.891 467.026 126.464V39.936C467.026 39.5093 467.154 39.168 467.41 38.912C467.751 38.5707 468.135 38.4 468.562 38.4H483.538C483.964 38.4 484.306 38.5707 484.562 38.912C484.903 39.168 485.074 39.5093 485.074 39.936V74.752C485.074 75.1787 485.287 75.392 485.714 75.392H498.514C498.94 75.392 499.154 75.1787 499.154 74.752V39.936ZM575.127 52.352C575.127 52.7787 574.956 53.1627 574.615 53.504C574.359 53.76 574.017 53.888 573.591 53.888H546.839C546.412 53.888 546.199 54.1013 546.199 54.528V74.752C546.199 75.1787 546.412 75.392 546.839 75.392H562.199C562.625 75.392 562.967 75.5627 563.223 75.904C563.564 76.16 563.735 76.5013 563.735 76.928V89.344C563.735 89.7707 563.564 90.1547 563.223 90.496C562.967 90.752 562.625 90.88 562.199 90.88H546.839C546.412 90.88 546.199 91.0933 546.199 91.52V111.872C546.199 112.299 546.412 112.512 546.839 112.512H573.591C574.017 112.512 574.359 112.683 574.615 113.024C574.956 113.28 575.127 113.621 575.127 114.048V126.464C575.127 126.891 574.956 127.275 574.615 127.616C574.359 127.872 574.017 128 573.591 128H529.687C529.26 128 528.876 127.872 528.535 127.616C528.279 127.275 528.151 126.891 528.151 126.464V39.936C528.151 39.5093 528.279 39.168 528.535 38.912C528.876 38.5707 529.26 38.4 529.687 38.4H573.591C574.017 38.4 574.359 38.5707 574.615 38.912C574.956 39.168 575.127 39.5093 575.127 39.936V52.352ZM661.357 103.296C661.357 111.232 658.967 117.333 654.189 121.6C649.41 125.867 643.223 128 635.629 128H611.437C611.01 128 610.626 127.872 610.285 127.616C610.029 127.275 609.901 126.891 609.901 126.464V39.936C609.901 39.5093 610.029 39.168 610.285 38.912C610.626 38.5707 611.01 38.4 611.437 38.4H632.813C641.346 38.4 648.002 40.448 652.781 44.544C657.645 48.64 660.077 54.7413 660.077 62.848C660.077 71.296 657.175 77.44 651.373 81.28C651.031 81.536 650.989 81.792 651.245 82.048C657.986 86.8267 661.357 93.9093 661.357 103.296ZM628.589 53.888C628.162 53.888 627.949 54.1013 627.949 54.528V74.624C627.949 75.0507 628.162 75.264 628.589 75.264H633.197C636.098 75.264 638.359 74.368 639.981 72.576C641.602 70.6987 642.413 68.096 642.413 64.768C642.413 61.2693 641.602 58.5813 639.981 56.704C638.445 54.8267 636.183 53.888 633.197 53.888H628.589ZM634.221 112.384C637.037 112.384 639.255 111.36 640.877 109.312C642.498 107.264 643.309 104.363 643.309 100.608C643.309 96.8533 642.498 93.8667 640.877 91.648C639.255 89.4293 637.079 88.32 634.349 88.32H628.589C628.162 88.32 627.949 88.5333 627.949 88.96V111.744C627.949 112.171 628.162 112.384 628.589 112.384H634.221ZM716.627 52.352C716.627 52.7787 716.456 53.1627 716.115 53.504C715.859 53.76 715.517 53.888 715.091 53.888H688.339C687.912 53.888 687.699 54.1013 687.699 54.528V74.752C687.699 75.1787 687.912 75.392 688.339 75.392H703.699C704.125 75.392 704.467 75.5627 704.723 75.904C705.064 76.16 705.235 76.5013 705.235 76.928V89.344C705.235 89.7707 705.064 90.1547 704.723 90.496C704.467 90.752 704.125 90.88 703.699 90.88H688.339C687.912 90.88 687.699 91.0933 687.699 91.52V111.872C687.699 112.299 687.912 112.512 688.339 112.512H715.091C715.517 112.512 715.859 112.683 716.115 113.024C716.456 113.28 716.627 113.621 716.627 114.048V126.464C716.627 126.891 716.456 127.275 716.115 127.616C715.859 127.872 715.517 128 715.091 128H671.187C670.76 128 670.376 127.872 670.035 127.616C669.779 127.275 669.651 126.891 669.651 126.464V39.936C669.651 39.5093 669.779 39.168 670.035 38.912C670.376 38.5707 670.76 38.4 671.187 38.4H715.091C715.517 38.4 715.859 38.5707 716.115 38.912C716.456 39.168 716.627 39.5093 716.627 39.936V52.352ZM757.904 39.936C757.904 39.5093 758.032 39.168 758.288 38.912C758.629 38.5707 759.013 38.4 759.44 38.4H774.416C774.842 38.4 775.184 38.5707 775.44 38.912C775.781 39.168 775.952 39.5093 775.952 39.936V126.464C775.952 126.891 775.781 127.275 775.44 127.616C775.184 127.872 774.842 128 774.416 128H759.44C759.013 128 758.629 127.872 758.288 127.616C758.032 127.275 757.904 126.891 757.904 126.464V91.52C757.904 91.0933 757.69 90.88 757.264 90.88H744.464C744.037 90.88 743.824 91.0933 743.824 91.52V126.464C743.824 126.891 743.653 127.275 743.312 127.616C743.056 127.872 742.714 128 742.288 128H727.312C726.885 128 726.501 127.872 726.16 127.616C725.904 127.275 725.776 126.891 725.776 126.464V39.936C725.776 39.5093 725.904 39.168 726.16 38.912C726.501 38.5707 726.885 38.4 727.312 38.4H742.288C742.714 38.4 743.056 38.5707 743.312 38.912C743.653 39.168 743.824 39.5093 743.824 39.936V74.752C743.824 75.1787 744.037 75.392 744.464 75.392H757.264C757.69 75.392 757.904 75.1787 757.904 74.752V39.936ZM811.852 129.024C804.001 129.024 797.729 126.72 793.036 122.112C788.342 117.504 785.996 111.36 785.996 103.68V62.72C785.996 55.04 788.342 48.896 793.036 44.288C797.729 39.68 804.001 37.376 811.852 37.376C819.702 37.376 825.974 39.68 830.668 44.288C835.446 48.896 837.836 55.04 837.836 62.72V103.68C837.836 111.36 835.446 117.504 830.668 122.112C825.974 126.72 819.702 129.024 811.852 129.024ZM811.852 113.536C814.241 113.536 816.161 112.725 817.612 111.104C819.062 109.397 819.788 107.179 819.788 104.448V61.952C819.788 59.2213 819.062 57.0453 817.612 55.424C816.161 53.7173 814.241 52.864 811.852 52.864C809.462 52.864 807.542 53.7173 806.092 55.424C804.726 57.0453 804.044 59.2213 804.044 61.952V104.448C804.044 107.179 804.726 109.397 806.092 111.104C807.542 112.725 809.462 113.536 811.852 113.536ZM849.312 128C848.885 128 848.501 127.872 848.16 127.616C847.904 127.275 847.776 126.891 847.776 126.464V39.936C847.776 39.5093 847.904 39.168 848.16 38.912C848.501 38.5707 848.885 38.4 849.312 38.4H864.288C864.714 38.4 865.056 38.5707 865.312 38.912C865.653 39.168 865.824 39.5093 865.824 39.936V111.872C865.824 112.299 866.037 112.512 866.464 112.512H893.344C893.77 112.512 894.112 112.683 894.368 113.024C894.709 113.28 894.88 113.621 894.88 114.048V126.464C894.88 126.891 894.709 127.275 894.368 127.616C894.112 127.872 893.77 128 893.344 128H849.312ZM903.812 128C903.385 128 903.001 127.872 902.66 127.616C902.404 127.275 902.276 126.891 902.276 126.464V39.936C902.276 39.5093 902.404 39.168 902.66 38.912C903.001 38.5707 903.385 38.4 903.812 38.4H926.98C934.745 38.4 940.974 40.6613 945.668 45.184C950.361 49.7067 952.708 55.7227 952.708 63.232V103.168C952.708 110.677 950.361 116.693 945.668 121.216C940.974 125.739 934.745 128 926.98 128H903.812ZM920.324 111.872C920.324 112.299 920.537 112.512 920.964 112.512L926.724 112.384C929.028 112.299 930.905 111.317 932.356 109.44C933.806 107.563 934.574 105.088 934.66 102.016V64.384C934.66 61.1413 933.934 58.5813 932.484 56.704C931.033 54.8267 929.07 53.888 926.596 53.888H920.964C920.537 53.888 920.324 54.1013 920.324 54.528V111.872ZM1009.75 52.352C1009.75 52.7787 1009.58 53.1627 1009.24 53.504C1008.98 53.76 1008.64 53.888 1008.22 53.888H981.464C981.037 53.888 980.824 54.1013 980.824 54.528V74.752C980.824 75.1787 981.037 75.392 981.464 75.392H996.824C997.25 75.392 997.592 75.5627 997.848 75.904C998.189 76.16 998.36 76.5013 998.36 76.928V89.344C998.36 89.7707 998.189 90.1547 997.848 90.496C997.592 90.752 997.25 90.88 996.824 90.88H981.464C981.037 90.88 980.824 91.0933 980.824 91.52V111.872C980.824 112.299 981.037 112.512 981.464 112.512H1008.22C1008.64 112.512 1008.98 112.683 1009.24 113.024C1009.58 113.28 1009.75 113.621 1009.75 114.048V126.464C1009.75 126.891 1009.58 127.275 1009.24 127.616C1008.98 127.872 1008.64 128 1008.22 128H964.312C963.885 128 963.501 127.872 963.16 127.616C962.904 127.275 962.776 126.891 962.776 126.464V39.936C962.776 39.5093 962.904 39.168 963.16 38.912C963.501 38.5707 963.885 38.4 964.312 38.4H1008.22C1008.64 38.4 1008.98 38.5707 1009.24 38.912C1009.58 39.168 1009.75 39.5093 1009.75 39.936V52.352ZM1054.23 128C1053.29 128 1052.69 127.573 1052.44 126.72L1042.58 91.392C1042.41 91.0507 1042.2 90.88 1041.94 90.88H1037.59C1037.16 90.88 1036.95 91.0933 1036.95 91.52V126.464C1036.95 126.891 1036.78 127.275 1036.44 127.616C1036.18 127.872 1035.84 128 1035.41 128H1020.44C1020.01 128 1019.63 127.872 1019.28 127.616C1019.03 127.275 1018.9 126.891 1018.9 126.464V39.936C1018.9 39.5093 1019.03 39.168 1019.28 38.912C1019.63 38.5707 1020.01 38.4 1020.44 38.4H1046.29C1050.99 38.4 1055.17 39.552 1058.84 41.856C1062.51 44.0747 1065.32 47.232 1067.28 51.328C1069.33 55.424 1070.36 60.1173 1070.36 65.408C1070.36 70.4427 1069.38 74.88 1067.41 78.72C1065.54 82.56 1062.89 85.5467 1059.48 87.68C1059.31 87.7653 1059.18 87.8933 1059.09 88.064C1059.01 88.1493 1059.01 88.2773 1059.09 88.448L1070.87 126.208L1071 126.72C1071 127.573 1070.53 128 1069.59 128H1054.23ZM1037.59 53.888C1037.16 53.888 1036.95 54.1013 1036.95 54.528V76.416C1036.95 76.8427 1037.16 77.056 1037.59 77.056H1043.35C1045.99 77.056 1048.13 76.032 1049.75 73.984C1051.46 71.8507 1052.31 69.0347 1052.31 65.536C1052.31 61.952 1051.46 59.136 1049.75 57.088C1048.13 54.9547 1045.99 53.888 1043.35 53.888H1037.59ZM1102.57 129.024C1097.62 129.024 1093.26 128.043 1089.51 126.08C1085.75 124.117 1082.85 121.387 1080.81 117.888C1078.76 114.304 1077.73 110.208 1077.73 105.6V101.888C1077.73 101.461 1077.86 101.12 1078.12 100.864C1078.46 100.523 1078.84 100.352 1079.27 100.352H1093.99C1094.42 100.352 1094.76 100.523 1095.01 100.864C1095.35 101.12 1095.53 101.461 1095.53 101.888V104.704C1095.53 107.349 1096.21 109.483 1097.57 111.104C1098.94 112.725 1100.65 113.536 1102.69 113.536C1104.74 113.536 1106.45 112.768 1107.81 111.232C1109.18 109.696 1109.86 107.691 1109.86 105.216C1109.86 102.656 1109.01 100.48 1107.3 98.688C1105.59 96.8107 1102.27 94.08 1097.32 90.496C1093.05 87.424 1089.59 84.6933 1086.95 82.304C1084.3 79.9147 1082.04 76.9707 1080.17 73.472C1078.29 69.9733 1077.35 65.92 1077.35 61.312C1077.35 54.0587 1079.61 48.256 1084.13 43.904C1088.66 39.552 1094.63 37.376 1102.05 37.376C1109.56 37.376 1115.58 39.6373 1120.1 44.16C1124.71 48.6827 1127.01 54.6133 1127.01 61.952V65.024C1127.01 65.4507 1126.84 65.8347 1126.5 66.176C1126.25 66.432 1125.9 66.56 1125.48 66.56H1110.76C1110.33 66.56 1109.95 66.432 1109.61 66.176C1109.35 65.8347 1109.22 65.4507 1109.22 65.024V61.568C1109.22 58.9227 1108.54 56.832 1107.17 55.296C1105.89 53.6747 1104.19 52.864 1102.05 52.864C1100.01 52.864 1098.34 53.632 1097.06 55.168C1095.78 56.6187 1095.14 58.6667 1095.14 61.312C1095.14 63.872 1095.95 66.1333 1097.57 68.096C1099.19 70.0587 1102.39 72.7893 1107.17 76.288C1112.46 80.2133 1116.43 83.4133 1119.08 85.888C1121.81 88.2773 1123.9 90.9653 1125.35 93.952C1126.89 96.8533 1127.65 100.352 1127.65 104.448C1127.65 111.957 1125.35 117.931 1120.74 122.368C1116.13 126.805 1110.07 129.024 1102.57 129.024Z" fill="url(#paint0_linear_16_7)" shape-rendering="crispEdges"/>
</g>
<g style="mix-blend-mode:multiply" filter="url(#filter1_d_16_7)">
<path d="M52.608 52.352C52.608 52.7787 52.4373 53.1627 52.096 53.504C51.84 53.76 51.4987 53.888 51.072 53.888H24.32C23.8933 53.888 23.68 54.1013 23.68 54.528V74.752C23.68 75.1787 23.8933 75.392 24.32 75.392H39.68C40.1067 75.392 40.448 75.5627 40.704 75.904C41.0453 76.16 41.216 76.5013 41.216 76.928V89.344C41.216 89.7707 41.0453 90.1547 40.704 90.496C40.448 90.752 40.1067 90.88 39.68 90.88H24.32C23.8933 90.88 23.68 91.0933 23.68 91.52V111.872C23.68 112.299 23.8933 112.512 24.32 112.512H51.072C51.4987 112.512 51.84 112.683 52.096 113.024C52.4373 113.28 52.608 113.621 52.608 114.048V126.464C52.608 126.891 52.4373 127.275 52.096 127.616C51.84 127.872 51.4987 128 51.072 128H7.168C6.74133 128 6.35733 127.872 6.016 127.616C5.76 127.275 5.632 126.891 5.632 126.464V39.936C5.632 39.5093 5.76 39.168 6.016 38.912C6.35733 38.5707 6.74133 38.4 7.168 38.4H51.072C51.4987 38.4 51.84 38.5707 52.096 38.912C52.4373 39.168 52.608 39.5093 52.608 39.936V52.352ZM78.909 127.872C78.4823 127.872 78.0983 127.744 77.757 127.488C77.501 127.147 77.373 126.763 77.373 126.336V93.056L77.245 92.288L59.325 40.192C59.2397 40.0213 59.197 39.808 59.197 39.552C59.197 38.784 59.6663 38.4 60.605 38.4H76.349C77.2877 38.4 77.885 38.8267 78.141 39.68L86.077 70.272C86.1623 70.528 86.2903 70.656 86.461 70.656C86.6317 70.656 86.7597 70.528 86.845 70.272L94.781 39.68C95.037 38.8267 95.6343 38.4 96.573 38.4H112.317C112.829 38.4 113.213 38.5707 113.469 38.912C113.725 39.168 113.768 39.5947 113.597 40.192L95.549 92.288L95.421 93.056V126.336C95.421 126.763 95.2503 127.147 94.909 127.488C94.653 127.744 94.3117 127.872 93.885 127.872H78.909ZM168.358 52.352C168.358 52.7787 168.187 53.1627 167.846 53.504C167.59 53.76 167.249 53.888 166.822 53.888H140.07C139.643 53.888 139.43 54.1013 139.43 54.528V74.752C139.43 75.1787 139.643 75.392 140.07 75.392H155.43C155.857 75.392 156.198 75.5627 156.454 75.904C156.795 76.16 156.966 76.5013 156.966 76.928V89.344C156.966 89.7707 156.795 90.1547 156.454 90.496C156.198 90.752 155.857 90.88 155.43 90.88H140.07C139.643 90.88 139.43 91.0933 139.43 91.52V111.872C139.43 112.299 139.643 112.512 140.07 112.512H166.822C167.249 112.512 167.59 112.683 167.846 113.024C168.187 113.28 168.358 113.621 168.358 114.048V126.464C168.358 126.891 168.187 127.275 167.846 127.616C167.59 127.872 167.249 128 166.822 128H122.918C122.491 128 122.107 127.872 121.766 127.616C121.51 127.275 121.382 126.891 121.382 126.464V39.936C121.382 39.5093 121.51 39.168 121.766 38.912C122.107 38.5707 122.491 38.4 122.918 38.4H166.822C167.249 38.4 167.59 38.5707 167.846 38.912C168.187 39.168 168.358 39.5093 168.358 39.936V52.352ZM200.547 129.024C195.598 129.024 191.246 128.043 187.491 126.08C183.736 124.117 180.835 121.387 178.787 117.888C176.739 114.304 175.715 110.208 175.715 105.6V101.888C175.715 101.461 175.843 101.12 176.099 100.864C176.44 100.523 176.824 100.352 177.251 100.352H191.971C192.398 100.352 192.739 100.523 192.995 100.864C193.336 101.12 193.507 101.461 193.507 101.888V104.704C193.507 107.349 194.19 109.483 195.555 111.104C196.92 112.725 198.627 113.536 200.675 113.536C202.723 113.536 204.43 112.768 205.795 111.232C207.16 109.696 207.843 107.691 207.843 105.216C207.843 102.656 206.99 100.48 205.283 98.688C203.576 96.8107 200.248 94.08 195.299 90.496C191.032 87.424 187.576 84.6933 184.931 82.304C182.286 79.9147 180.024 76.9707 178.147 73.472C176.27 69.9733 175.331 65.92 175.331 61.312C175.331 54.0587 177.592 48.256 182.115 43.904C186.638 39.552 192.611 37.376 200.035 37.376C207.544 37.376 213.56 39.6373 218.083 44.16C222.691 48.6827 224.995 54.6133 224.995 61.952V65.024C224.995 65.4507 224.824 65.8347 224.483 66.176C224.227 66.432 223.886 66.56 223.459 66.56H208.739C208.312 66.56 207.928 66.432 207.587 66.176C207.331 65.8347 207.203 65.4507 207.203 65.024V61.568C207.203 58.9227 206.52 56.832 205.155 55.296C203.875 53.6747 202.168 52.864 200.035 52.864C197.987 52.864 196.323 53.632 195.043 55.168C193.763 56.6187 193.123 58.6667 193.123 61.312C193.123 63.872 193.934 66.1333 195.555 68.096C197.176 70.0587 200.376 72.7893 205.155 76.288C210.446 80.2133 214.414 83.4133 217.059 85.888C219.79 88.2773 221.88 90.9653 223.331 93.952C224.867 96.8533 225.635 100.352 225.635 104.448C225.635 111.957 223.331 117.931 218.723 122.368C214.115 126.805 208.056 129.024 200.547 129.024ZM284.583 129.024C276.732 129.024 270.46 126.72 265.767 122.112C261.074 117.504 258.727 111.36 258.727 103.68V62.72C258.727 55.04 261.074 48.896 265.767 44.288C270.46 39.68 276.732 37.376 284.583 37.376C292.434 37.376 298.706 39.68 303.399 44.288C308.178 48.896 310.567 55.04 310.567 62.72V103.68C310.567 111.36 308.178 117.504 303.399 122.112C298.706 126.72 292.434 129.024 284.583 129.024ZM284.583 113.536C286.972 113.536 288.892 112.725 290.343 111.104C291.794 109.397 292.519 107.179 292.519 104.448V61.952C292.519 59.2213 291.794 57.0453 290.343 55.424C288.892 53.7173 286.972 52.864 284.583 52.864C282.194 52.864 280.274 53.7173 278.823 55.424C277.458 57.0453 276.775 59.2213 276.775 61.952V104.448C276.775 107.179 277.458 109.397 278.823 111.104C280.274 112.725 282.194 113.536 284.583 113.536ZM367.355 52.352C367.355 52.7787 367.184 53.1627 366.843 53.504C366.587 53.76 366.246 53.888 365.819 53.888H339.195C338.768 53.888 338.555 54.1013 338.555 54.528V74.752C338.555 75.1787 338.768 75.392 339.195 75.392H354.427C354.854 75.392 355.195 75.5627 355.451 75.904C355.792 76.16 355.963 76.5013 355.963 76.928V89.344C355.963 89.7707 355.792 90.1547 355.451 90.496C355.195 90.752 354.854 90.88 354.427 90.88H339.195C338.768 90.88 338.555 91.0933 338.555 91.52V126.464C338.555 126.891 338.384 127.275 338.043 127.616C337.787 127.872 337.446 128 337.019 128H322.043C321.616 128 321.232 127.872 320.891 127.616C320.635 127.275 320.507 126.891 320.507 126.464V39.936C320.507 39.5093 320.635 39.168 320.891 38.912C321.232 38.5707 321.616 38.4 322.043 38.4H365.819C366.246 38.4 366.587 38.5707 366.843 38.912C367.184 39.168 367.355 39.5093 367.355 39.936V52.352ZM449.671 38.4C450.098 38.4 450.439 38.5707 450.695 38.912C451.036 39.168 451.207 39.5093 451.207 39.936V52.352C451.207 52.7787 451.036 53.1627 450.695 53.504C450.439 53.76 450.098 53.888 449.671 53.888H433.671C433.244 53.888 433.031 54.1013 433.031 54.528V126.464C433.031 126.891 432.86 127.275 432.519 127.616C432.263 127.872 431.922 128 431.495 128H416.519C416.092 128 415.708 127.872 415.367 127.616C415.111 127.275 414.983 126.891 414.983 126.464V54.528C414.983 54.1013 414.77 53.888 414.343 53.888H398.983C398.556 53.888 398.172 53.76 397.831 53.504C397.575 53.1627 397.447 52.7787 397.447 52.352V39.936C397.447 39.5093 397.575 39.168 397.831 38.912C398.172 38.5707 398.556 38.4 398.983 38.4H449.671ZM492.01 39.936C492.01 39.5093 492.138 39.168 492.394 38.912C492.735 38.5707 493.119 38.4 493.546 38.4H508.522C508.949 38.4 509.29 38.5707 509.546 38.912C509.887 39.168 510.058 39.5093 510.058 39.936V126.464C510.058 126.891 509.887 127.275 509.546 127.616C509.29 127.872 508.949 128 508.522 128H493.546C493.119 128 492.735 127.872 492.394 127.616C492.138 127.275 492.01 126.891 492.01 126.464V91.52C492.01 91.0933 491.797 90.88 491.37 90.88H478.57C478.143 90.88 477.93 91.0933 477.93 91.52V126.464C477.93 126.891 477.759 127.275 477.418 127.616C477.162 127.872 476.821 128 476.394 128H461.418C460.991 128 460.607 127.872 460.266 127.616C460.01 127.275 459.882 126.891 459.882 126.464V39.936C459.882 39.5093 460.01 39.168 460.266 38.912C460.607 38.5707 460.991 38.4 461.418 38.4H476.394C476.821 38.4 477.162 38.5707 477.418 38.912C477.759 39.168 477.93 39.5093 477.93 39.936V74.752C477.93 75.1787 478.143 75.392 478.57 75.392H491.37C491.797 75.392 492.01 75.1787 492.01 74.752V39.936ZM567.983 52.352C567.983 52.7787 567.812 53.1627 567.471 53.504C567.215 53.76 566.874 53.888 566.447 53.888H539.695C539.268 53.888 539.055 54.1013 539.055 54.528V74.752C539.055 75.1787 539.268 75.392 539.695 75.392H555.055C555.482 75.392 555.823 75.5627 556.079 75.904C556.42 76.16 556.591 76.5013 556.591 76.928V89.344C556.591 89.7707 556.42 90.1547 556.079 90.496C555.823 90.752 555.482 90.88 555.055 90.88H539.695C539.268 90.88 539.055 91.0933 539.055 91.52V111.872C539.055 112.299 539.268 112.512 539.695 112.512H566.447C566.874 112.512 567.215 112.683 567.471 113.024C567.812 113.28 567.983 113.621 567.983 114.048V126.464C567.983 126.891 567.812 127.275 567.471 127.616C567.215 127.872 566.874 128 566.447 128H522.543C522.116 128 521.732 127.872 521.391 127.616C521.135 127.275 521.007 126.891 521.007 126.464V39.936C521.007 39.5093 521.135 39.168 521.391 38.912C521.732 38.5707 522.116 38.4 522.543 38.4H566.447C566.874 38.4 567.215 38.5707 567.471 38.912C567.812 39.168 567.983 39.5093 567.983 39.936V52.352ZM654.213 103.296C654.213 111.232 651.824 117.333 647.045 121.6C642.266 125.867 636.08 128 628.485 128H604.293C603.866 128 603.482 127.872 603.141 127.616C602.885 127.275 602.757 126.891 602.757 126.464V39.936C602.757 39.5093 602.885 39.168 603.141 38.912C603.482 38.5707 603.866 38.4 604.293 38.4H625.669C634.202 38.4 640.858 40.448 645.637 44.544C650.501 48.64 652.933 54.7413 652.933 62.848C652.933 71.296 650.032 77.44 644.229 81.28C643.888 81.536 643.845 81.792 644.101 82.048C650.842 86.8267 654.213 93.9093 654.213 103.296ZM621.445 53.888C621.018 53.888 620.805 54.1013 620.805 54.528V74.624C620.805 75.0507 621.018 75.264 621.445 75.264H626.053C628.954 75.264 631.216 74.368 632.837 72.576C634.458 70.6987 635.269 68.096 635.269 64.768C635.269 61.2693 634.458 58.5813 632.837 56.704C631.301 54.8267 629.04 53.888 626.053 53.888H621.445ZM627.077 112.384C629.893 112.384 632.112 111.36 633.733 109.312C635.354 107.264 636.165 104.363 636.165 100.608C636.165 96.8533 635.354 93.8667 633.733 91.648C632.112 89.4293 629.936 88.32 627.205 88.32H621.445C621.018 88.32 620.805 88.5333 620.805 88.96V111.744C620.805 112.171 621.018 112.384 621.445 112.384H627.077ZM709.483 52.352C709.483 52.7787 709.312 53.1627 708.971 53.504C708.715 53.76 708.374 53.888 707.947 53.888H681.195C680.768 53.888 680.555 54.1013 680.555 54.528V74.752C680.555 75.1787 680.768 75.392 681.195 75.392H696.555C696.982 75.392 697.323 75.5627 697.579 75.904C697.92 76.16 698.091 76.5013 698.091 76.928V89.344C698.091 89.7707 697.92 90.1547 697.579 90.496C697.323 90.752 696.982 90.88 696.555 90.88H681.195C680.768 90.88 680.555 91.0933 680.555 91.52V111.872C680.555 112.299 680.768 112.512 681.195 112.512H707.947C708.374 112.512 708.715 112.683 708.971 113.024C709.312 113.28 709.483 113.621 709.483 114.048V126.464C709.483 126.891 709.312 127.275 708.971 127.616C708.715 127.872 708.374 128 707.947 128H664.043C663.616 128 663.232 127.872 662.891 127.616C662.635 127.275 662.507 126.891 662.507 126.464V39.936C662.507 39.5093 662.635 39.168 662.891 38.912C663.232 38.5707 663.616 38.4 664.043 38.4H707.947C708.374 38.4 708.715 38.5707 708.971 38.912C709.312 39.168 709.483 39.5093 709.483 39.936V52.352ZM750.76 39.936C750.76 39.5093 750.888 39.168 751.144 38.912C751.485 38.5707 751.869 38.4 752.296 38.4H767.272C767.699 38.4 768.04 38.5707 768.296 38.912C768.637 39.168 768.808 39.5093 768.808 39.936V126.464C768.808 126.891 768.637 127.275 768.296 127.616C768.04 127.872 767.699 128 767.272 128H752.296C751.869 128 751.485 127.872 751.144 127.616C750.888 127.275 750.76 126.891 750.76 126.464V91.52C750.76 91.0933 750.547 90.88 750.12 90.88H737.32C736.893 90.88 736.68 91.0933 736.68 91.52V126.464C736.68 126.891 736.509 127.275 736.168 127.616C735.912 127.872 735.571 128 735.144 128H720.168C719.741 128 719.357 127.872 719.016 127.616C718.76 127.275 718.632 126.891 718.632 126.464V39.936C718.632 39.5093 718.76 39.168 719.016 38.912C719.357 38.5707 719.741 38.4 720.168 38.4H735.144C735.571 38.4 735.912 38.5707 736.168 38.912C736.509 39.168 736.68 39.5093 736.68 39.936V74.752C736.68 75.1787 736.893 75.392 737.32 75.392H750.12C750.547 75.392 750.76 75.1787 750.76 74.752V39.936ZM804.708 129.024C796.857 129.024 790.585 126.72 785.892 122.112C781.199 117.504 778.852 111.36 778.852 103.68V62.72C778.852 55.04 781.199 48.896 785.892 44.288C790.585 39.68 796.857 37.376 804.708 37.376C812.559 37.376 818.831 39.68 823.524 44.288C828.303 48.896 830.692 55.04 830.692 62.72V103.68C830.692 111.36 828.303 117.504 823.524 122.112C818.831 126.72 812.559 129.024 804.708 129.024ZM804.708 113.536C807.097 113.536 809.017 112.725 810.468 111.104C811.919 109.397 812.644 107.179 812.644 104.448V61.952C812.644 59.2213 811.919 57.0453 810.468 55.424C809.017 53.7173 807.097 52.864 804.708 52.864C802.319 52.864 800.399 53.7173 798.948 55.424C797.583 57.0453 796.9 59.2213 796.9 61.952V104.448C796.9 107.179 797.583 109.397 798.948 111.104C800.399 112.725 802.319 113.536 804.708 113.536ZM842.168 128C841.741 128 841.357 127.872 841.016 127.616C840.76 127.275 840.632 126.891 840.632 126.464V39.936C840.632 39.5093 840.76 39.168 841.016 38.912C841.357 38.5707 841.741 38.4 842.168 38.4H857.144C857.571 38.4 857.912 38.5707 858.168 38.912C858.509 39.168 858.68 39.5093 858.68 39.936V111.872C858.68 112.299 858.893 112.512 859.32 112.512H886.2C886.627 112.512 886.968 112.683 887.224 113.024C887.565 113.28 887.736 113.621 887.736 114.048V126.464C887.736 126.891 887.565 127.275 887.224 127.616C886.968 127.872 886.627 128 886.2 128H842.168ZM896.668 128C896.241 128 895.857 127.872 895.516 127.616C895.26 127.275 895.132 126.891 895.132 126.464V39.936C895.132 39.5093 895.26 39.168 895.516 38.912C895.857 38.5707 896.241 38.4 896.668 38.4H919.836C927.601 38.4 933.831 40.6613 938.524 45.184C943.217 49.7067 945.564 55.7227 945.564 63.232V103.168C945.564 110.677 943.217 116.693 938.524 121.216C933.831 125.739 927.601 128 919.836 128H896.668ZM913.18 111.872C913.18 112.299 913.393 112.512 913.82 112.512L919.58 112.384C921.884 112.299 923.761 111.317 925.212 109.44C926.663 107.563 927.431 105.088 927.516 102.016V64.384C927.516 61.1413 926.791 58.5813 925.34 56.704C923.889 54.8267 921.927 53.888 919.452 53.888H913.82C913.393 53.888 913.18 54.1013 913.18 54.528V111.872ZM1002.61 52.352C1002.61 52.7787 1002.44 53.1627 1002.1 53.504C1001.84 53.76 1001.5 53.888 1001.07 53.888H974.32C973.893 53.888 973.68 54.1013 973.68 54.528V74.752C973.68 75.1787 973.893 75.392 974.32 75.392H989.68C990.107 75.392 990.448 75.5627 990.704 75.904C991.045 76.16 991.216 76.5013 991.216 76.928V89.344C991.216 89.7707 991.045 90.1547 990.704 90.496C990.448 90.752 990.107 90.88 989.68 90.88H974.32C973.893 90.88 973.68 91.0933 973.68 91.52V111.872C973.68 112.299 973.893 112.512 974.32 112.512H1001.07C1001.5 112.512 1001.84 112.683 1002.1 113.024C1002.44 113.28 1002.61 113.621 1002.61 114.048V126.464C1002.61 126.891 1002.44 127.275 1002.1 127.616C1001.84 127.872 1001.5 128 1001.07 128H957.168C956.741 128 956.357 127.872 956.016 127.616C955.76 127.275 955.632 126.891 955.632 126.464V39.936C955.632 39.5093 955.76 39.168 956.016 38.912C956.357 38.5707 956.741 38.4 957.168 38.4H1001.07C1001.5 38.4 1001.84 38.5707 1002.1 38.912C1002.44 39.168 1002.61 39.5093 1002.61 39.936V52.352ZM1047.09 128C1046.15 128 1045.55 127.573 1045.29 126.72L1035.44 91.392C1035.27 91.0507 1035.05 90.88 1034.8 90.88H1030.45C1030.02 90.88 1029.81 91.0933 1029.81 91.52V126.464C1029.81 126.891 1029.63 127.275 1029.29 127.616C1029.04 127.872 1028.7 128 1028.27 128H1013.29C1012.87 128 1012.48 127.872 1012.14 127.616C1011.89 127.275 1011.76 126.891 1011.76 126.464V39.936C1011.76 39.5093 1011.89 39.168 1012.14 38.912C1012.48 38.5707 1012.87 38.4 1013.29 38.4H1039.15C1043.84 38.4 1048.02 39.552 1051.69 41.856C1055.36 44.0747 1058.18 47.232 1060.14 51.328C1062.19 55.424 1063.21 60.1173 1063.21 65.408C1063.21 70.4427 1062.23 74.88 1060.27 78.72C1058.39 82.56 1055.75 85.5467 1052.33 87.68C1052.16 87.7653 1052.03 87.8933 1051.95 88.064C1051.86 88.1493 1051.86 88.2773 1051.95 88.448L1063.73 126.208L1063.85 126.72C1063.85 127.573 1063.38 128 1062.45 128H1047.09ZM1030.45 53.888C1030.02 53.888 1029.81 54.1013 1029.81 54.528V76.416C1029.81 76.8427 1030.02 77.056 1030.45 77.056H1036.21C1038.85 77.056 1040.98 76.032 1042.61 73.984C1044.31 71.8507 1045.17 69.0347 1045.17 65.536C1045.17 61.952 1044.31 59.136 1042.61 57.088C1040.98 54.9547 1038.85 53.888 1036.21 53.888H1030.45ZM1095.42 129.024C1090.47 129.024 1086.12 128.043 1082.37 126.08C1078.61 124.117 1075.71 121.387 1073.66 117.888C1071.61 114.304 1070.59 110.208 1070.59 105.6V101.888C1070.59 101.461 1070.72 101.12 1070.97 100.864C1071.32 100.523 1071.7 100.352 1072.13 100.352H1086.85C1087.27 100.352 1087.61 100.523 1087.87 100.864C1088.21 101.12 1088.38 101.461 1088.38 101.888V104.704C1088.38 107.349 1089.06 109.483 1090.43 111.104C1091.8 112.725 1093.5 113.536 1095.55 113.536C1097.6 113.536 1099.3 112.768 1100.67 111.232C1102.04 109.696 1102.72 107.691 1102.72 105.216C1102.72 102.656 1101.86 100.48 1100.16 98.688C1098.45 96.8107 1095.12 94.08 1090.17 90.496C1085.91 87.424 1082.45 84.6933 1079.81 82.304C1077.16 79.9147 1074.9 76.9707 1073.02 73.472C1071.14 69.9733 1070.21 65.92 1070.21 61.312C1070.21 54.0587 1072.47 48.256 1076.99 43.904C1081.51 39.552 1087.49 37.376 1094.91 37.376C1102.42 37.376 1108.44 39.6373 1112.96 44.16C1117.57 48.6827 1119.87 54.6133 1119.87 61.952V65.024C1119.87 65.4507 1119.7 65.8347 1119.36 66.176C1119.1 66.432 1118.76 66.56 1118.33 66.56H1103.61C1103.19 66.56 1102.8 66.432 1102.46 66.176C1102.21 65.8347 1102.08 65.4507 1102.08 65.024V61.568C1102.08 58.9227 1101.4 56.832 1100.03 55.296C1098.75 53.6747 1097.04 52.864 1094.91 52.864C1092.86 52.864 1091.2 53.632 1089.92 55.168C1088.64 56.6187 1088 58.6667 1088 61.312C1088 63.872 1088.81 66.1333 1090.43 68.096C1092.05 70.0587 1095.25 72.7893 1100.03 76.288C1105.32 80.2133 1109.29 83.4133 1111.93 85.888C1114.66 88.2773 1116.76 90.9653 1118.21 93.952C1119.74 96.8533 1120.51 100.352 1120.51 104.448C1120.51 111.957 1118.21 117.931 1113.6 122.368C1108.99 126.805 1102.93 129.024 1095.42 129.024Z" fill="#6C31D4"/>
</g>
<g style="mix-blend-mode:multiply" filter="url(#filter2_d_16_7)">
<path d="M64.7525 52.352C64.7525 52.7787 64.5819 53.1627 64.2405 53.504C63.9845 53.76 63.6432 53.888 63.2165 53.888H36.4645C36.0379 53.888 35.8245 54.1013 35.8245 54.528V74.752C35.8245 75.1787 36.0379 75.392 36.4645 75.392H51.8245C52.2512 75.392 52.5925 75.5627 52.8485 75.904C53.1899 76.16 53.3605 76.5013 53.3605 76.928V89.344C53.3605 89.7707 53.1899 90.1547 52.8485 90.496C52.5925 90.752 52.2512 90.88 51.8245 90.88H36.4645C36.0379 90.88 35.8245 91.0933 35.8245 91.52V111.872C35.8245 112.299 36.0379 112.512 36.4645 112.512H63.2165C63.6432 112.512 63.9845 112.683 64.2405 113.024C64.5819 113.28 64.7525 113.621 64.7525 114.048V126.464C64.7525 126.891 64.5819 127.275 64.2405 127.616C63.9845 127.872 63.6432 128 63.2165 128H19.3125C18.8859 128 18.5019 127.872 18.1605 127.616C17.9045 127.275 17.7765 126.891 17.7765 126.464V39.936C17.7765 39.5093 17.9045 39.168 18.1605 38.912C18.5019 38.5707 18.8859 38.4 19.3125 38.4H63.2165C63.6432 38.4 63.9845 38.5707 64.2405 38.912C64.5819 39.168 64.7525 39.5093 64.7525 39.936V52.352ZM91.0535 127.872C90.6269 127.872 90.2429 127.744 89.9015 127.488C89.6455 127.147 89.5175 126.763 89.5175 126.336V93.056L89.3895 92.288L71.4695 40.192C71.3842 40.0213 71.3415 39.808 71.3415 39.552C71.3415 38.784 71.8109 38.4 72.7495 38.4H88.4935C89.4322 38.4 90.0295 38.8267 90.2855 39.68L98.2215 70.272C98.3069 70.528 98.4349 70.656 98.6055 70.656C98.7762 70.656 98.9042 70.528 98.9895 70.272L106.926 39.68C107.182 38.8267 107.779 38.4 108.718 38.4H124.462C124.974 38.4 125.358 38.5707 125.614 38.912C125.87 39.168 125.912 39.5947 125.742 40.192L107.694 92.288L107.566 93.056V126.336C107.566 126.763 107.395 127.147 107.054 127.488C106.798 127.744 106.456 127.872 106.03 127.872H91.0535ZM180.503 52.352C180.503 52.7787 180.332 53.1627 179.991 53.504C179.735 53.76 179.393 53.888 178.967 53.888H152.215C151.788 53.888 151.575 54.1013 151.575 54.528V74.752C151.575 75.1787 151.788 75.392 152.215 75.392H167.575C168.001 75.392 168.343 75.5627 168.599 75.904C168.94 76.16 169.111 76.5013 169.111 76.928V89.344C169.111 89.7707 168.94 90.1547 168.599 90.496C168.343 90.752 168.001 90.88 167.575 90.88H152.215C151.788 90.88 151.575 91.0933 151.575 91.52V111.872C151.575 112.299 151.788 112.512 152.215 112.512H178.967C179.393 112.512 179.735 112.683 179.991 113.024C180.332 113.28 180.503 113.621 180.503 114.048V126.464C180.503 126.891 180.332 127.275 179.991 127.616C179.735 127.872 179.393 128 178.967 128H135.063C134.636 128 134.252 127.872 133.911 127.616C133.655 127.275 133.527 126.891 133.527 126.464V39.936C133.527 39.5093 133.655 39.168 133.911 38.912C134.252 38.5707 134.636 38.4 135.063 38.4H178.967C179.393 38.4 179.735 38.5707 179.991 38.912C180.332 39.168 180.503 39.5093 180.503 39.936V52.352ZM212.692 129.024C207.742 129.024 203.39 128.043 199.636 126.08C195.881 124.117 192.98 121.387 190.932 117.888C188.884 114.304 187.86 110.208 187.86 105.6V101.888C187.86 101.461 187.988 101.12 188.244 100.864C188.585 100.523 188.969 100.352 189.396 100.352H204.116C204.542 100.352 204.884 100.523 205.14 100.864C205.481 101.12 205.652 101.461 205.652 101.888V104.704C205.652 107.349 206.334 109.483 207.7 111.104C209.065 112.725 210.772 113.536 212.82 113.536C214.868 113.536 216.574 112.768 217.94 111.232C219.305 109.696 219.988 107.691 219.988 105.216C219.988 102.656 219.134 100.48 217.428 98.688C215.721 96.8107 212.393 94.08 207.444 90.496C203.177 87.424 199.721 84.6933 197.076 82.304C194.43 79.9147 192.169 76.9707 190.292 73.472C188.414 69.9733 187.476 65.92 187.476 61.312C187.476 54.0587 189.737 48.256 194.26 43.904C198.782 39.552 204.756 37.376 212.18 37.376C219.689 37.376 225.705 39.6373 230.228 44.16C234.836 48.6827 237.14 54.6133 237.14 61.952V65.024C237.14 65.4507 236.969 65.8347 236.628 66.176C236.372 66.432 236.03 66.56 235.604 66.56H220.884C220.457 66.56 220.073 66.432 219.732 66.176C219.476 65.8347 219.348 65.4507 219.348 65.024V61.568C219.348 58.9227 218.665 56.832 217.3 55.296C216.02 53.6747 214.313 52.864 212.18 52.864C210.132 52.864 208.468 53.632 207.188 55.168C205.908 56.6187 205.268 58.6667 205.268 61.312C205.268 63.872 206.078 66.1333 207.7 68.096C209.321 70.0587 212.521 72.7893 217.3 76.288C222.59 80.2133 226.558 83.4133 229.204 85.888C231.934 88.2773 234.025 90.9653 235.476 93.952C237.012 96.8533 237.78 100.352 237.78 104.448C237.78 111.957 235.476 117.931 230.868 122.368C226.26 126.805 220.201 129.024 212.692 129.024ZM296.728 129.024C288.877 129.024 282.605 126.72 277.912 122.112C273.218 117.504 270.872 111.36 270.872 103.68V62.72C270.872 55.04 273.218 48.896 277.912 44.288C282.605 39.68 288.877 37.376 296.728 37.376C304.578 37.376 310.85 39.68 315.544 44.288C320.322 48.896 322.712 55.04 322.712 62.72V103.68C322.712 111.36 320.322 117.504 315.544 122.112C310.85 126.72 304.578 129.024 296.728 129.024ZM296.728 113.536C299.117 113.536 301.037 112.725 302.488 111.104C303.938 109.397 304.664 107.179 304.664 104.448V61.952C304.664 59.2213 303.938 57.0453 302.488 55.424C301.037 53.7173 299.117 52.864 296.728 52.864C294.338 52.864 292.418 53.7173 290.968 55.424C289.602 57.0453 288.92 59.2213 288.92 61.952V104.448C288.92 107.179 289.602 109.397 290.968 111.104C292.418 112.725 294.338 113.536 296.728 113.536ZM379.5 52.352C379.5 52.7787 379.329 53.1627 378.988 53.504C378.732 53.76 378.39 53.888 377.964 53.888H351.34C350.913 53.888 350.7 54.1013 350.7 54.528V74.752C350.7 75.1787 350.913 75.392 351.34 75.392H366.572C366.998 75.392 367.34 75.5627 367.596 75.904C367.937 76.16 368.108 76.5013 368.108 76.928V89.344C368.108 89.7707 367.937 90.1547 367.596 90.496C367.34 90.752 366.998 90.88 366.572 90.88H351.34C350.913 90.88 350.7 91.0933 350.7 91.52V126.464C350.7 126.891 350.529 127.275 350.188 127.616C349.932 127.872 349.59 128 349.164 128H334.188C333.761 128 333.377 127.872 333.036 127.616C332.78 127.275 332.652 126.891 332.652 126.464V39.936C332.652 39.5093 332.78 39.168 333.036 38.912C333.377 38.5707 333.761 38.4 334.188 38.4H377.964C378.39 38.4 378.732 38.5707 378.988 38.912C379.329 39.168 379.5 39.5093 379.5 39.936V52.352ZM461.816 38.4C462.242 38.4 462.584 38.5707 462.84 38.912C463.181 39.168 463.352 39.5093 463.352 39.936V52.352C463.352 52.7787 463.181 53.1627 462.84 53.504C462.584 53.76 462.242 53.888 461.816 53.888H445.816C445.389 53.888 445.176 54.1013 445.176 54.528V126.464C445.176 126.891 445.005 127.275 444.664 127.616C444.408 127.872 444.066 128 443.64 128H428.664C428.237 128 427.853 127.872 427.512 127.616C427.256 127.275 427.128 126.891 427.128 126.464V54.528C427.128 54.1013 426.914 53.888 426.488 53.888H411.128C410.701 53.888 410.317 53.76 409.976 53.504C409.72 53.1627 409.592 52.7787 409.592 52.352V39.936C409.592 39.5093 409.72 39.168 409.976 38.912C410.317 38.5707 410.701 38.4 411.128 38.4H461.816ZM504.155 39.936C504.155 39.5093 504.283 39.168 504.539 38.912C504.88 38.5707 505.264 38.4 505.691 38.4H520.667C521.093 38.4 521.435 38.5707 521.691 38.912C522.032 39.168 522.203 39.5093 522.203 39.936V126.464C522.203 126.891 522.032 127.275 521.691 127.616C521.435 127.872 521.093 128 520.667 128H505.691C505.264 128 504.88 127.872 504.539 127.616C504.283 127.275 504.155 126.891 504.155 126.464V91.52C504.155 91.0933 503.941 90.88 503.515 90.88H490.715C490.288 90.88 490.075 91.0933 490.075 91.52V126.464C490.075 126.891 489.904 127.275 489.563 127.616C489.307 127.872 488.965 128 488.539 128H473.563C473.136 128 472.752 127.872 472.411 127.616C472.155 127.275 472.027 126.891 472.027 126.464V39.936C472.027 39.5093 472.155 39.168 472.411 38.912C472.752 38.5707 473.136 38.4 473.563 38.4H488.539C488.965 38.4 489.307 38.5707 489.563 38.912C489.904 39.168 490.075 39.5093 490.075 39.936V74.752C490.075 75.1787 490.288 75.392 490.715 75.392H503.515C503.941 75.392 504.155 75.1787 504.155 74.752V39.936ZM580.128 52.352C580.128 52.7787 579.957 53.1627 579.616 53.504C579.36 53.76 579.018 53.888 578.592 53.888H551.84C551.413 53.888 551.2 54.1013 551.2 54.528V74.752C551.2 75.1787 551.413 75.392 551.84 75.392H567.2C567.626 75.392 567.968 75.5627 568.224 75.904C568.565 76.16 568.736 76.5013 568.736 76.928V89.344C568.736 89.7707 568.565 90.1547 568.224 90.496C567.968 90.752 567.626 90.88 567.2 90.88H551.84C551.413 90.88 551.2 91.0933 551.2 91.52V111.872C551.2 112.299 551.413 112.512 551.84 112.512H578.592C579.018 112.512 579.36 112.683 579.616 113.024C579.957 113.28 580.128 113.621 580.128 114.048V126.464C580.128 126.891 579.957 127.275 579.616 127.616C579.36 127.872 579.018 128 578.592 128H534.688C534.261 128 533.877 127.872 533.536 127.616C533.28 127.275 533.152 126.891 533.152 126.464V39.936C533.152 39.5093 533.28 39.168 533.536 38.912C533.877 38.5707 534.261 38.4 534.688 38.4H578.592C579.018 38.4 579.36 38.5707 579.616 38.912C579.957 39.168 580.128 39.5093 580.128 39.936V52.352ZM666.358 103.296C666.358 111.232 663.968 117.333 659.19 121.6C654.411 125.867 648.224 128 640.63 128H616.438C616.011 128 615.627 127.872 615.286 127.616C615.03 127.275 614.902 126.891 614.902 126.464V39.936C614.902 39.5093 615.03 39.168 615.286 38.912C615.627 38.5707 616.011 38.4 616.438 38.4H637.814C646.347 38.4 653.003 40.448 657.782 44.544C662.646 48.64 665.078 54.7413 665.078 62.848C665.078 71.296 662.176 77.44 656.374 81.28C656.032 81.536 655.99 81.792 656.246 82.048C662.987 86.8267 666.358 93.9093 666.358 103.296ZM633.59 53.888C633.163 53.888 632.95 54.1013 632.95 54.528V74.624C632.95 75.0507 633.163 75.264 633.59 75.264H638.198C641.099 75.264 643.36 74.368 644.982 72.576C646.603 70.6987 647.414 68.096 647.414 64.768C647.414 61.2693 646.603 58.5813 644.982 56.704C643.446 54.8267 641.184 53.888 638.198 53.888H633.59ZM639.222 112.384C642.038 112.384 644.256 111.36 645.878 109.312C647.499 107.264 648.31 104.363 648.31 100.608C648.31 96.8533 647.499 93.8667 645.878 91.648C644.256 89.4293 642.08 88.32 639.35 88.32H633.59C633.163 88.32 632.95 88.5333 632.95 88.96V111.744C632.95 112.171 633.163 112.384 633.59 112.384H639.222ZM721.628 52.352C721.628 52.7787 721.457 53.1627 721.116 53.504C720.86 53.76 720.518 53.888 720.092 53.888H693.34C692.913 53.888 692.7 54.1013 692.7 54.528V74.752C692.7 75.1787 692.913 75.392 693.34 75.392H708.7C709.126 75.392 709.468 75.5627 709.724 75.904C710.065 76.16 710.236 76.5013 710.236 76.928V89.344C710.236 89.7707 710.065 90.1547 709.724 90.496C709.468 90.752 709.126 90.88 708.7 90.88H693.34C692.913 90.88 692.7 91.0933 692.7 91.52V111.872C692.7 112.299 692.913 112.512 693.34 112.512H720.092C720.518 112.512 720.86 112.683 721.116 113.024C721.457 113.28 721.628 113.621 721.628 114.048V126.464C721.628 126.891 721.457 127.275 721.116 127.616C720.86 127.872 720.518 128 720.092 128H676.188C675.761 128 675.377 127.872 675.036 127.616C674.78 127.275 674.652 126.891 674.652 126.464V39.936C674.652 39.5093 674.78 39.168 675.036 38.912C675.377 38.5707 675.761 38.4 676.188 38.4H720.092C720.518 38.4 720.86 38.5707 721.116 38.912C721.457 39.168 721.628 39.5093 721.628 39.936V52.352ZM762.905 39.936C762.905 39.5093 763.033 39.168 763.289 38.912C763.63 38.5707 764.014 38.4 764.441 38.4H779.417C779.843 38.4 780.185 38.5707 780.441 38.912C780.782 39.168 780.953 39.5093 780.953 39.936V126.464C780.953 126.891 780.782 127.275 780.441 127.616C780.185 127.872 779.843 128 779.417 128H764.441C764.014 128 763.63 127.872 763.289 127.616C763.033 127.275 762.905 126.891 762.905 126.464V91.52C762.905 91.0933 762.691 90.88 762.265 90.88H749.465C749.038 90.88 748.825 91.0933 748.825 91.52V126.464C748.825 126.891 748.654 127.275 748.313 127.616C748.057 127.872 747.715 128 747.289 128H732.313C731.886 128 731.502 127.872 731.161 127.616C730.905 127.275 730.777 126.891 730.777 126.464V39.936C730.777 39.5093 730.905 39.168 731.161 38.912C731.502 38.5707 731.886 38.4 732.313 38.4H747.289C747.715 38.4 748.057 38.5707 748.313 38.912C748.654 39.168 748.825 39.5093 748.825 39.936V74.752C748.825 75.1787 749.038 75.392 749.465 75.392H762.265C762.691 75.392 762.905 75.1787 762.905 74.752V39.936ZM816.853 129.024C809.002 129.024 802.73 126.72 798.037 122.112C793.343 117.504 790.997 111.36 790.997 103.68V62.72C790.997 55.04 793.343 48.896 798.037 44.288C802.73 39.68 809.002 37.376 816.853 37.376C824.703 37.376 830.975 39.68 835.669 44.288C840.447 48.896 842.837 55.04 842.837 62.72V103.68C842.837 111.36 840.447 117.504 835.669 122.112C830.975 126.72 824.703 129.024 816.853 129.024ZM816.853 113.536C819.242 113.536 821.162 112.725 822.613 111.104C824.063 109.397 824.789 107.179 824.789 104.448V61.952C824.789 59.2213 824.063 57.0453 822.613 55.424C821.162 53.7173 819.242 52.864 816.853 52.864C814.463 52.864 812.543 53.7173 811.093 55.424C809.727 57.0453 809.045 59.2213 809.045 61.952V104.448C809.045 107.179 809.727 109.397 811.093 111.104C812.543 112.725 814.463 113.536 816.853 113.536ZM854.313 128C853.886 128 853.502 127.872 853.161 127.616C852.905 127.275 852.777 126.891 852.777 126.464V39.936C852.777 39.5093 852.905 39.168 853.161 38.912C853.502 38.5707 853.886 38.4 854.313 38.4H869.289C869.715 38.4 870.057 38.5707 870.313 38.912C870.654 39.168 870.825 39.5093 870.825 39.936V111.872C870.825 112.299 871.038 112.512 871.465 112.512H898.345C898.771 112.512 899.113 112.683 899.369 113.024C899.71 113.28 899.881 113.621 899.881 114.048V126.464C899.881 126.891 899.71 127.275 899.369 127.616C899.113 127.872 898.771 128 898.345 128H854.313ZM908.813 128C908.386 128 908.002 127.872 907.661 127.616C907.405 127.275 907.277 126.891 907.277 126.464V39.936C907.277 39.5093 907.405 39.168 907.661 38.912C908.002 38.5707 908.386 38.4 908.813 38.4H931.981C939.746 38.4 945.975 40.6613 950.669 45.184C955.362 49.7067 957.709 55.7227 957.709 63.232V103.168C957.709 110.677 955.362 116.693 950.669 121.216C945.975 125.739 939.746 128 931.981 128H908.813ZM925.325 111.872C925.325 112.299 925.538 112.512 925.965 112.512L931.725 112.384C934.029 112.299 935.906 111.317 937.357 109.44C938.807 107.563 939.575 105.088 939.661 102.016V64.384C939.661 61.1413 938.935 58.5813 937.485 56.704C936.034 54.8267 934.071 53.888 931.597 53.888H925.965C925.538 53.888 925.325 54.1013 925.325 54.528V111.872ZM1014.75 52.352C1014.75 52.7787 1014.58 53.1627 1014.24 53.504C1013.98 53.76 1013.64 53.888 1013.22 53.888H986.465C986.038 53.888 985.825 54.1013 985.825 54.528V74.752C985.825 75.1787 986.038 75.392 986.465 75.392H1001.82C1002.25 75.392 1002.59 75.5627 1002.85 75.904C1003.19 76.16 1003.36 76.5013 1003.36 76.928V89.344C1003.36 89.7707 1003.19 90.1547 1002.85 90.496C1002.59 90.752 1002.25 90.88 1001.82 90.88H986.465C986.038 90.88 985.825 91.0933 985.825 91.52V111.872C985.825 112.299 986.038 112.512 986.465 112.512H1013.22C1013.64 112.512 1013.98 112.683 1014.24 113.024C1014.58 113.28 1014.75 113.621 1014.75 114.048V126.464C1014.75 126.891 1014.58 127.275 1014.24 127.616C1013.98 127.872 1013.64 128 1013.22 128H969.313C968.886 128 968.502 127.872 968.161 127.616C967.905 127.275 967.777 126.891 967.777 126.464V39.936C967.777 39.5093 967.905 39.168 968.161 38.912C968.502 38.5707 968.886 38.4 969.313 38.4H1013.22C1013.64 38.4 1013.98 38.5707 1014.24 38.912C1014.58 39.168 1014.75 39.5093 1014.75 39.936V52.352ZM1059.23 128C1058.29 128 1057.69 127.573 1057.44 126.72L1047.58 91.392C1047.41 91.0507 1047.2 90.88 1046.94 90.88H1042.59C1042.16 90.88 1041.95 91.0933 1041.95 91.52V126.464C1041.95 126.891 1041.78 127.275 1041.44 127.616C1041.18 127.872 1040.84 128 1040.41 128H1025.44C1025.01 128 1024.63 127.872 1024.29 127.616C1024.03 127.275 1023.9 126.891 1023.9 126.464V39.936C1023.9 39.5093 1024.03 39.168 1024.29 38.912C1024.63 38.5707 1025.01 38.4 1025.44 38.4H1051.29C1055.99 38.4 1060.17 39.552 1063.84 41.856C1067.51 44.0747 1070.32 47.232 1072.29 51.328C1074.33 55.424 1075.36 60.1173 1075.36 65.408C1075.36 70.4427 1074.38 74.88 1072.41 78.72C1070.54 82.56 1067.89 85.5467 1064.48 87.68C1064.31 87.7653 1064.18 87.8933 1064.09 88.064C1064.01 88.1493 1064.01 88.2773 1064.09 88.448L1075.87 126.208L1076 126.72C1076 127.573 1075.53 128 1074.59 128H1059.23ZM1042.59 53.888C1042.16 53.888 1041.95 54.1013 1041.95 54.528V76.416C1041.95 76.8427 1042.16 77.056 1042.59 77.056H1048.35C1050.99 77.056 1053.13 76.032 1054.75 73.984C1056.46 71.8507 1057.31 69.0347 1057.31 65.536C1057.31 61.952 1056.46 59.136 1054.75 57.088C1053.13 54.9547 1050.99 53.888 1048.35 53.888H1042.59ZM1107.57 129.024C1102.62 129.024 1098.27 128.043 1094.51 126.08C1090.76 124.117 1087.85 121.387 1085.81 117.888C1083.76 114.304 1082.73 110.208 1082.73 105.6V101.888C1082.73 101.461 1082.86 101.12 1083.12 100.864C1083.46 100.523 1083.84 100.352 1084.27 100.352H1098.99C1099.42 100.352 1099.76 100.523 1100.01 100.864C1100.36 101.12 1100.53 101.461 1100.53 101.888V104.704C1100.53 107.349 1101.21 109.483 1102.57 111.104C1103.94 112.725 1105.65 113.536 1107.69 113.536C1109.74 113.536 1111.45 112.768 1112.81 111.232C1114.18 109.696 1114.86 107.691 1114.86 105.216C1114.86 102.656 1114.01 100.48 1112.3 98.688C1110.6 96.8107 1107.27 94.08 1102.32 90.496C1098.05 87.424 1094.6 84.6933 1091.95 82.304C1089.31 79.9147 1087.04 76.9707 1085.17 73.472C1083.29 69.9733 1082.35 65.92 1082.35 61.312C1082.35 54.0587 1084.61 48.256 1089.13 43.904C1093.66 39.552 1099.63 37.376 1107.05 37.376C1114.56 37.376 1120.58 39.6373 1125.1 44.16C1129.71 48.6827 1132.01 54.6133 1132.01 61.952V65.024C1132.01 65.4507 1131.84 65.8347 1131.5 66.176C1131.25 66.432 1130.91 66.56 1130.48 66.56H1115.76C1115.33 66.56 1114.95 66.432 1114.61 66.176C1114.35 65.8347 1114.22 65.4507 1114.22 65.024V61.568C1114.22 58.9227 1113.54 56.832 1112.17 55.296C1110.89 53.6747 1109.19 52.864 1107.05 52.864C1105.01 52.864 1103.34 53.632 1102.06 55.168C1100.78 56.6187 1100.14 58.6667 1100.14 61.312C1100.14 63.872 1100.95 66.1333 1102.57 68.096C1104.2 70.0587 1107.4 72.7893 1112.17 76.288C1117.47 80.2133 1121.43 83.4133 1124.08 85.888C1126.81 88.2773 1128.9 90.9653 1130.35 93.952C1131.89 96.8533 1132.65 100.352 1132.65 104.448C1132.65 111.957 1130.35 117.931 1125.74 122.368C1121.13 126.805 1115.08 129.024 1107.57 129.024Z" fill="#FDD328"/>
</g>
<defs>
<filter id="filter0_d_16_7" x="8.77539" y="37.376" width="1122.88" height="99.6479" filterUnits="userSpaceOnUse" color-interpolation-filters="sRGB">
<feFlood flood-opacity="0" result="BackgroundImageFix"/>
<feColorMatrix in="SourceAlpha" type="matrix" values="0 0 0 0 0 0 0 0 0 0 0 0 0 0 0 0 0 0 127 0" result="hardAlpha"/>
<feOffset dy="4"/>
<feGaussianBlur stdDeviation="2"/>
<feComposite in2="hardAlpha" operator="out"/>
<feColorMatrix type="matrix" values="0 0 0 0 0 0 0 0 0 0 0 0 0 0 0 0 0 0 0.25 0"/>
<feBlend mode="normal" in2="BackgroundImageFix" result="effect1_dropShadow_16_7"/>
<feBlend mode="normal" in="SourceGraphic" in2="effect1_dropShadow_16_7" result="shape"/>
</filter>
<filter id="filter1_d_16_7" x="1.63184" y="37.376" width="1122.88" height="99.6479" filterUnits="userSpaceOnUse" color-interpolation-filters="sRGB">
<feFlood flood-opacity="0" result="BackgroundImageFix"/>
<feColorMatrix in="SourceAlpha" type="matrix" values="0 0 0 0 0 0 0 0 0 0 0 0 0 0 0 0 0 0 127 0" result="hardAlpha"/>
<feOffset dy="4"/>
<feGaussianBlur stdDeviation="2"/>
<feComposite in2="hardAlpha" operator="out"/>
<feColorMatrix type="matrix" values="0 0 0 0 0 0 0 0 0 0 0 0 0 0 0 0 0 0 0.25 0"/>
<feBlend mode="normal" in2="BackgroundImageFix" result="effect1_dropShadow_16_7"/>
<feBlend mode="normal" in="SourceGraphic" in2="effect1_dropShadow_16_7" result="shape"/>
</filter>
<filter id="filter2_d_16_7" x="13.7764" y="37.376" width="1122.88" height="99.6479" filterUnits="userSpaceOnUse" color-interpolation-filters="sRGB">
<feFlood flood-opacity="0" result="BackgroundImageFix"/>
<feColorMatrix in="SourceAlpha" type="matrix" values="0 0 0 0 0 0 0 0 0 0 0 0 0 0 0 0 0 0 127 0" result="hardAlpha"/>
<feOffset dy="4"/>
<feGaussianBlur stdDeviation="2"/>
<feComposite in2="hardAlpha" operator="out"/>
<feColorMatrix type="matrix" values="0 0 0 0 0 0 0 0 0 0 0 0 0 0 0 0 0 0 0.25 0"/>
<feBlend mode="normal" in2="BackgroundImageFix" result="effect1_dropShadow_16_7"/>
<feBlend mode="normal" in="SourceGraphic" in2="effect1_dropShadow_16_7" result="shape"/>
</filter>
<linearGradient id="paint0_linear_16_7" x1="572.571" y1="0" x2="572.571" y2="177" gradientUnits="userSpaceOnUse">
<stop/>
<stop offset="0.800016" stop-color="#250D2E" stop-opacity="0.98"/>
<stop offset="0.953125" stop-opacity="0"/>
</linearGradient>
</defs>
</svg>
